<?xml version="1.0" standalone="no"?>
<!DOCTYPE svg PUBLIC "-//W3C//DTD SVG 20010904//EN"
 "http://www.w3.org/TR/2001/REC-SVG-20010904/DTD/svg10.dtd">
<svg version="1.0" xmlns="http://www.w3.org/2000/svg"
 width="542.000000pt" height="542.000000pt" viewBox="0 0 542.000000 542.000000"
 preserveAspectRatio="xMidYMid meet">
<metadata>
Created by potrace 1.14, written by Peter Selinger 2001-2017
</metadata>
<g transform="translate(0.000000,542.000000) scale(0.100000,-0.100000)"
fill="#000000" stroke="none">
<path d="M1024 4825 l-70 -74 2 -448 c1 -246 4 -468 7 -493 3 -25 8 -83 12
-130 3 -46 8 -102 11 -123 2 -21 6 -57 9 -80 5 -53 12 -100 32 -212 8 -49 17
-99 19 -110 9 -59 54 -235 90 -354 109 -358 281 -689 503 -966 54 -68 256
-275 336 -345 102 -90 326 -246 455 -317 255 -141 247 -139 340 -93 76 37 129
66 233 126 32 19 62 34 68 34 5 0 9 3 9 8 0 4 20 18 45 32 25 14 45 28 45 32
0 5 5 8 10 8 11 0 186 124 205 144 6 6 30 27 55 46 44 34 117 101 209 190 62
61 177 192 232 265 24 33 46 62 49 65 3 3 20 28 38 55 17 28 36 55 42 62 21
25 128 219 172 313 57 119 145 358 163 440 2 8 4 15 5 15 1 0 3 7 5 15 1 8 10
42 18 75 8 33 18 78 23 100 4 22 8 46 10 53 1 8 8 46 14 85 7 40 14 79 15 87
2 8 6 47 10 85 4 39 9 78 11 87 4 26 15 174 19 261 1 43 5 81 8 83 3 3 1 19
-3 35 -5 16 -5 31 -2 33 9 5 7 354 -1 363 -4 3 -2 13 3 23 5 10 7 20 3 23 -5
5 -13 234 -17 484 l-1 93 -1685 0 -1685 -1 -71 -74z m3283 -79 c2 -1 4 -182 5
-402 2 -342 -4 -591 -17 -709 -2 -16 -6 -62 -9 -101 -4 -39 -8 -80 -10 -91 -2
-11 -7 -46 -10 -79 -4 -32 -8 -66 -11 -74 -2 -8 -6 -31 -9 -50 -7 -49 -23
-127 -49 -245 -18 -79 -83 -293 -107 -350 -4 -11 -14 -36 -21 -55 -38 -106
-138 -308 -207 -420 -45 -73 -158 -232 -204 -286 -158 -185 -323 -336 -513
-466 -88 -60 -251 -158 -263 -158 -5 0 -13 -5 -19 -11 -6 -6 -47 -28 -92 -49
l-82 -38 -128 68 c-134 71 -264 149 -269 162 -2 4 -8 8 -13 8 -9 0 -109 70
-135 94 -6 6 -22 18 -34 26 -48 32 -110 89 -223 205 -135 137 -143 145 -183
200 -16 22 -35 46 -42 54 -30 31 -148 221 -203 325 -61 116 -153 326 -142 326
3 0 1 6 -4 13 -9 10 -31 75 -73 212 -18 60 -49 192 -65 280 -9 50 -19 99 -21
110 -2 11 -5 36 -8 55 -2 19 -7 51 -10 70 -8 49 -15 113 -22 200 -3 41 -8 93
-11 115 -6 46 -10 896 -5 997 3 64 5 67 30 70 35 4 3175 -2 3179 -6z"/>
<path d="M3584 4540 c-30 -12 -114 -110 -121 -143 -3 -15 -10 -30 -14 -33 -5
-3 -7 -11 -3 -17 3 -7 -1 -4 -9 6 -13 16 -19 17 -39 7 -37 -19 -78 -62 -78
-81 0 -10 -5 -21 -10 -24 -6 -4 -10 -12 -9 -18 3 -25 -1 -38 -10 -32 -12 7
-41 -22 -41 -42 0 -35 65 -128 145 -205 45 -43 145 -114 185 -130 54 -21 78
-13 82 28 2 19 6 34 11 34 16 -1 77 30 95 47 39 37 50 84 43 193 l-2 25 -23
-27 -24 -26 0 31 c-1 72 -27 193 -44 203 -5 4 -19 -4 -30 -16 -11 -12 -22 -20
-23 -18 -10 10 -55 205 -51 220 5 23 -3 28 -30 18z m2 -117 c4 -26 14 -63 22
-83 18 -43 20 -149 3 -160 -7 -4 -12 -11 -10 -15 3 -12 -60 -73 -110 -108 -57
-39 -36 -47 34 -12 71 34 131 103 151 172 14 49 30 70 31 41 0 -7 3 -41 7 -75
12 -103 -19 -158 -98 -177 -22 -5 -26 -10 -16 -16 26 -16 81 -2 122 30 43 35
54 35 39 -1 -24 -56 -78 -89 -149 -89 -133 0 -313 208 -271 314 12 31 47 76
58 76 4 0 7 -21 8 -47 1 -27 10 -66 21 -88 15 -29 17 -46 11 -63 -14 -36 -11
-38 16 -12 21 20 24 30 19 55 -3 16 -10 35 -15 41 -14 17 -2 97 21 146 21 45
77 118 91 118 4 0 11 -21 15 -47z"/>
<path d="M2050 4435 c-69 -24 -86 -34 -167 -88 -45 -30 -79 -57 -76 -61 4 -3
1 -6 -5 -6 -17 0 -146 -125 -201 -194 -86 -110 -108 -162 -84 -195 19 -28 47
-26 118 8 195 92 485 395 485 505 0 35 -27 47 -70 31z m-1 -99 c-20 -40 -162
-214 -188 -230 -5 -3 -8 10 -8 32 1 20 -2 56 -6 78 -8 39 -6 44 27 77 42 42
175 112 189 98 6 -6 1 -27 -14 -55z"/>
<path d="M2104 4261 c-104 -159 -252 -293 -436 -396 -35 -19 -58 -35 -53 -36
6 -1 26 -3 45 -4 104 -9 142 -16 192 -35 96 -36 277 -159 412 -280 220 -197
284 -258 753 -725 366 -364 456 -449 471 -444 27 10 33 33 14 51 -10 8 -37 39
-62 68 -25 29 -49 58 -55 64 -5 6 -35 41 -65 76 -30 36 -57 67 -60 70 -3 3
-25 30 -50 60 -25 30 -52 62 -60 70 -8 8 -62 71 -120 140 -126 151 -203 243
-210 250 -3 3 -48 57 -100 120 -52 63 -97 117 -100 120 -3 3 -25 30 -50 60
-25 30 -47 57 -50 60 -3 3 -29 34 -58 70 -28 36 -61 74 -72 85 -11 12 -20 24
-20 27 0 4 -14 22 -30 40 -26 28 -136 227 -130 236 1 1 -7 33 -18 70 -22 71
-29 107 -38 187 -3 27 -7 51 -8 52 -2 2 -20 -24 -42 -56z m-114 -352 c35 -16
85 -46 110 -66 73 -58 378 -370 570 -583 18 -19 76 -82 129 -140 54 -58 117
-127 142 -155 24 -27 53 -59 64 -71 11 -11 47 -51 80 -88 33 -37 76 -85 95
-105 19 -21 58 -63 85 -95 28 -32 78 -87 112 -124 34 -37 60 -68 58 -71 -4 -4
-82 74 -394 395 -402 414 -620 629 -736 727 -16 14 -52 44 -79 67 -71 60 -194
150 -206 150 -5 0 -10 3 -10 8 0 12 -149 80 -194 89 -28 5 -32 11 -20 31 11
18 90 61 114 62 8 0 44 -14 80 -31z"/>
<path d="M3137 4153 c-19 -18 8 -98 53 -157 25 -34 186 -196 195 -196 4 0 20
-11 37 -25 16 -14 36 -25 44 -25 8 0 14 -4 14 -10 0 -5 6 -10 13 -10 8 0 29
-7 47 -17 33 -16 84 -22 96 -11 7 8 -15 88 -24 88 -5 0 -13 -5 -18 -10 -28
-28 -111 -5 -161 45 -8 8 -18 15 -22 15 -5 0 -45 36 -90 80 -89 87 -140 172
-118 198 9 11 7 17 -8 28 -20 15 -47 18 -58 7z"/>
<path d="M3099 4080 c0 -3 -3 -30 -6 -60 -2 -30 -9 -73 -14 -95 -5 -22 -11
-47 -13 -55 -7 -26 -67 -133 -111 -195 -24 -33 -89 -113 -145 -178 l-102 -117
25 -29 24 -29 95 96 c138 142 226 223 358 327 41 32 77 62 80 67 3 4 -24 39
-61 77 -41 42 -80 95 -98 133 -17 35 -31 61 -32 58z"/>
<path d="M3390 3695 c-78 -27 -202 -101 -290 -172 -108 -87 -162 -133 -250
-212 -40 -36 -43 -42 -30 -55 13 -13 21 -10 65 32 265 247 488 373 663 375 28
1 8 14 -40 27 -70 19 -77 19 -118 5z"/>
<path d="M2483 3133 c-32 -36 -69 -78 -83 -93 -14 -15 -61 -67 -105 -115 -44
-48 -108 -118 -142 -154 -62 -66 -76 -94 -49 -104 15 -6 479 461 483 486 2 6
-8 20 -21 29 -24 18 -24 17 -83 -49z"/>
<path d="M2530 3008 c-404 -388 -394 -378 -372 -392 11 -6 26 7 252 224 262
252 251 241 247 253 -8 24 -27 12 -127 -85z"/>
<path d="M2016 2681 c-18 -20 -18 -21 -1 -48 24 -37 59 -70 95 -88 26 -13 30
-13 50 3 l22 18 -35 27 c-19 14 -53 45 -74 67 -39 41 -39 41 -57 21z"/>
<path d="M1988 2576 c-38 -38 -246 -262 -265 -285 -13 -14 -23 -31 -23 -36 0
-10 39 -39 45 -33 2 2 76 72 165 157 l160 155 -27 28 c-30 32 -36 33 -55 14z"/>
<path d="M3511 2326 c-26 -27 -30 -35 -18 -44 11 -10 20 -7 41 13 26 24 34 49
18 59 -5 3 -23 -10 -41 -28z"/>
<path d="M3571 2297 c-5 -13 -23 -30 -40 -37 -30 -12 -31 -14 -15 -31 25 -28
74 -4 103 49 14 27 7 42 -20 42 -11 0 -23 -10 -28 -23z"/>
<path d="M3289 923 c-1 -5 -2 -104 -3 -220 l-1 -213 25 -8 c14 -5 53 -10 88
-11 125 -5 184 51 185 173 0 67 -19 115 -55 140 -26 18 -100 21 -130 5 -11 -6
-22 -8 -25 -5 -3 3 -6 37 -6 76 l0 70 -39 0 c-21 0 -38 -3 -39 -7z m193 -213
c28 -34 23 -126 -8 -157 -25 -25 -87 -32 -100 -11 -6 10 -9 106 -5 175 2 29
88 24 113 -7z"/>
<path d="M4227 906 c-2 -6 -1 -22 2 -36 5 -21 12 -25 44 -26 36 -1 37 0 37 32
0 19 -3 35 -7 35 -34 6 -73 3 -76 -5z"/>
<path d="M623 688 l2 -213 138 0 137 0 0 32 c0 19 -5 33 -12 34 -7 1 -49 2
-93 2 l-80 2 -3 58 -3 57 74 0 74 0 -3 28 c-1 15 -2 30 -3 34 -1 4 -22 7 -48
6 -97 -1 -93 -4 -93 52 0 56 -9 52 109 54 l74 1 3 33 4 32 -139 0 -139 0 1
-212z"/>
<path d="M2564 690 c0 -182 2 -210 15 -212 18 -1 52 -1 64 1 4 0 7 37 7 81 l0
80 33 0 c31 0 35 -4 72 -80 21 -44 41 -81 45 -81 31 -7 90 -4 89 5 0 6 -22 49
-48 96 l-48 85 27 16 c35 21 54 70 47 115 -13 77 -65 104 -205 104 l-98 0 0
-210z m168 141 c26 -2 51 -46 44 -75 -10 -40 -33 -56 -82 -56 l-44 0 0 63 c0
35 2 66 5 68 4 4 22 4 77 0z"/>
<path d="M4022 866 c-3 -6 -7 -20 -7 -31 0 -29 -13 -45 -31 -38 -12 5 -15 -1
-12 -28 2 -26 7 -33 21 -31 20 3 19 11 21 -108 3 -136 9 -147 81 -156 53 -8
75 3 75 36 0 24 -3 28 -22 25 -44 -8 -52 7 -52 107 l-1 93 30 1 c17 1 33 2 38
3 4 1 7 15 7 32 0 23 -4 30 -17 28 -52 -5 -59 0 -58 35 2 32 0 34 -32 38 -19
2 -37 -1 -41 -6z"/>
<path d="M4508 800 c-86 -11 -138 -72 -138 -162 0 -105 57 -168 153 -168 66 0
97 17 97 52 0 26 -2 28 -27 21 -92 -24 -136 6 -137 92 -1 50 2 60 27 81 25 21
35 24 82 19 54 -6 54 -6 52 21 -3 36 -44 52 -109 44z"/>
<path d="M967 791 c-3 -5 -1 -278 2 -308 1 -10 14 -11 73 -4 5 1 7 4 7 9 -1 4
-1 59 0 123 l1 117 27 5 c15 3 37 1 50 -4 22 -8 23 -12 23 -129 0 -66 3 -121
8 -121 30 -6 68 -4 72 2 3 5 5 60 4 123 -2 110 -1 114 22 124 26 13 64 8 75
-9 4 -7 7 -61 7 -121 0 -60 3 -112 7 -116 4 -4 22 -7 41 -7 l34 0 0 136 c0
123 -2 139 -21 163 -17 21 -29 26 -65 26 -25 0 -58 -7 -75 -15 -27 -14 -32
-14 -51 0 -28 19 -90 19 -128 0 -22 -11 -29 -12 -33 -2 -4 12 -75 20 -80 8z"/>
<path d="M1543 780 c-48 -29 -65 -63 -70 -138 -5 -77 14 -118 68 -151 45 -27
133 -24 175 6 88 63 81 244 -10 287 -47 22 -124 20 -163 -4z m135 -69 c16 -26
18 -45 13 -118 -1 -31 -35 -63 -65 -63 -13 0 -34 8 -47 19 -20 16 -23 28 -23
84 0 79 18 107 71 107 26 0 37 -6 51 -29z"/>
<path d="M1839 792 c-7 -42 -2 -312 6 -313 6 -1 24 -2 41 -3 l31 -1 -1 103
c-1 57 2 112 6 122 5 13 21 21 52 25 44 7 46 9 46 41 0 29 -4 34 -22 34 -13 0
-38 -9 -55 -20 -18 -11 -32 -16 -32 -12 4 23 -5 30 -36 30 -19 0 -35 -3 -36
-6z"/>
<path d="M2046 778 c3 -11 30 -76 59 -146 50 -119 52 -128 39 -154 -14 -27
-27 -32 -66 -29 -12 2 -18 -5 -18 -18 0 -19 6 -21 64 -21 74 0 80 5 116 99 12
31 26 65 30 76 16 39 43 111 60 161 l18 52 -38 0 c-38 1 -38 0 -61 -61 -12
-34 -29 -78 -37 -97 l-14 -34 -34 89 c-19 49 -40 92 -46 96 -6 4 -26 7 -45 7
-29 0 -33 -3 -27 -20z"/>
<path d="M2989 777 c-85 -57 -94 -204 -17 -275 35 -32 121 -41 172 -17 52 25
77 65 83 135 7 75 -21 140 -71 164 -50 24 -126 21 -167 -7z m134 -55 c20 -22
28 -105 14 -145 -17 -50 -72 -62 -111 -24 -19 20 -23 32 -21 85 1 44 7 68 20
82 23 25 76 26 98 2z"/>
<path d="M3699 777 c-68 -45 -89 -148 -49 -233 48 -98 211 -99 266 -1 46 82
19 208 -50 241 -50 24 -126 21 -167 -7z m135 -55 c20 -23 27 -92 14 -138 -14
-54 -66 -70 -109 -35 -20 16 -23 28 -23 84 -1 50 4 70 18 86 24 27 77 28 100
3z"/>
<path d="M4230 786 c-1 -19 -1 -198 -1 -258 l1 -56 33 3 c17 2 35 4 40 4 4 1
7 72 7 159 l0 159 -40 0 c-22 0 -40 -5 -40 -11z"/>
<path d="M4713 790 c-36 -15 -56 -55 -50 -101 7 -52 11 -56 88 -82 53 -19 63
-26 61 -42 -2 -11 -9 -24 -15 -28 -13 -9 -92 -4 -119 8 -15 6 -18 2 -18 -23 0
-25 6 -32 31 -41 46 -16 113 -13 153 6 33 15 40 28 52 89 1 6 -5 25 -13 43
-12 23 -26 34 -57 42 -76 20 -88 28 -84 52 3 20 8 22 71 21 65 -1 67 0 64 23
-2 14 -10 29 -18 34 -18 11 -117 11 -146 -1z"/>
</g>
</svg>
